# xmcd
# 
# Track frame offsets:
#     150
#     15961
#     25829
#     37712
#     48192
#     56623
#     67180
#     76226
#     86494
#     97315
#     108506
#     118258
# 
# Disc length: 1713
# 
# Revision: 3
# Processed by: cddbd v1.5.2PL0 Copyright (c) Steve Scherf et al.
# Submitted via: BonkEnc v1.0.15
# 
DISCID=9206af0c
DTITLE=Roy Orbison e - There Is Only One Roy Orbison
DYEAR=1968
DGENRE=Rock and Roll
TTITLE0=Ride Away
TTITLE1=You Fool You
TTITLE2=Two of a Kind
TTITLE3=This Is Your Song
TTITLE4=I'm in a Blue, Blue Mood
TTITLE5=If You Can't Say Something Nice
TTITLE6=Claudette
TTITLE7=Afraid to Sleep
TTITLE8=Sugar and Honey
TTITLE9=Summer Love
TTITLE10=Big as I Can Dream
TTITLE11=Wondering
EXTD=
EXTT0=
EXTT1=
EXTT2=
EXTT3=
EXTT4=
EXTT5=
EXTT6=
EXTT7=
EXTT8=
EXTT9=
EXTT10=
EXTT11=
PLAYORDER=
